<svg xmlns="http://www.w3.org/2000/svg" viewBox="0 0 446.31 62.08"><defs><style>.cls-1{fill:#231f20;}</style></defs><title>Fichier 11</title><g id="Calque_2" data-name="Calque 2"><g id="Calque_1-2" data-name="Calque 1"><path class="cls-1" d="M106.85,0a8.62,8.62,0,0,0-8.3,10.87L61.49,44.54l-.05-28.07A8.62,8.62,0,1,0,49.08,8.73a8.74,8.74,0,0,0,.28,2.12L12.52,44.58h0l-.88.81a8.54,8.54,0,0,0-3-.55A8.63,8.63,0,0,0,0,53.48a8.4,8.4,0,0,0,.32,2.3,8.62,8.62,0,0,0,16.92-2.33,8.54,8.54,0,0,0-.31-2.28L53.6,17.59l.06,28.21A8.62,8.62,0,1,0,66.4,53.35,8.94,8.94,0,0,0,66.06,51l37.76-34.3a8.61,8.61,0,1,0,3-16.67Z"/><path class="cls-1" d="M.24,9.52c0,.15,0,.3,0,.45s0,.07,0,.11.06.36.1.53a.36.36,0,0,0,0,.11c0,.15.07.29.11.43a.65.65,0,0,0,0,.13,8.69,8.69,0,0,0,.37,1l.05.1c.07.15.14.31.22.45l0,0a4.76,4.76,0,0,0,.28.49l0,0a4,4,0,0,0,.29.43l0,0a7.56,7.56,0,0,0,.72.87l0,0a8.54,8.54,0,0,0,2.32,1.72,8.63,8.63,0,0,0,3.79.94,8.73,8.73,0,0,0,3.78-1,6.65,6.65,0,0,0,.58-.33l.17-.11.39-.27.18-.13.37-.31.15-.12c.16-.15.32-.3.47-.46h0l0,0h0a9.68,9.68,0,0,0,.71-.85l0,0,.19-.28.09-.15,0,0c.1-.16.19-.32.28-.48l0,0c.07-.15.15-.3.22-.46a1,1,0,0,0,0-.1h0a9.48,9.48,0,0,0,.38-1l0-.13a.29.29,0,0,0,0-.09l.09-.34a.43.43,0,0,0,0-.11c0-.17.07-.35.1-.53s0-.08,0-.11,0-.3,0-.45,0-.1,0-.15,0-.37,0-.56A8.62,8.62,0,0,0,8.68.19,8.62,8.62,0,0,0,.2,8.82c0,.18,0,.37,0,.55S.23,9.47.24,9.52Z"/><path class="cls-1" d="M286.58,19.8a16.59,16.59,0,0,0-13.68,7.3,17.59,17.59,0,0,0-3.09,10A11.13,11.13,0,0,1,268.67,42a10.17,10.17,0,0,1-1.25,2,10.43,10.43,0,0,1-8.2,4,10.93,10.93,0,0,1-.35-21.83,10.28,10.28,0,0,1,6.33,1.9A1.35,1.35,0,0,0,267,27.9l3.51-3.63a16.4,16.4,0,0,0-12-4.45,17.07,17.07,0,0,0-15.94,16c-.68,10.1,7.07,18.52,16.72,18.52a16.46,16.46,0,0,0,11.3-4.52,17.23,17.23,0,0,0,1.25-1.31,17.91,17.91,0,0,0,1.13-1.47,16.61,16.61,0,0,0,13.68,7.3,17,17,0,0,0,16.77-17.3A17,17,0,0,0,286.58,19.8Zm0,28.21a10.93,10.93,0,1,1,10.59-10.92A10.76,10.76,0,0,1,286.58,48Z"/><path class="cls-1" d="M198.36,8.34,188.18,43.69l-11-36.41h-5a1.47,1.47,0,0,0-1.41,1L160.47,43.69,150.23,8.34a1.47,1.47,0,0,0-1.41-1.06h-5.46L157.2,54.8h5.08a1.47,1.47,0,0,0,1.4-1l10.54-35.7,10.69,35.7a1.47,1.47,0,0,0,1.41,1h5.07L205.24,7.28h-5.46A1.47,1.47,0,0,0,198.36,8.34Z"/><path class="cls-1" d="M219.56,19.8c-10.07,0-17.38,7.36-17.38,17.5s7.42,17.5,17.63,17.5c6.28,0,11.76-2.86,14.65-7.65l.78-1.3-4-2.38a1.47,1.47,0,0,0-2,.56l0,0c-1.64,3-5.11,4.79-9.28,4.79-5.64,0-10-3.33-11.21-8.45h26a1.47,1.47,0,0,0,1.47-1.47v0c0-.21,0-.42,0-.64s0-.55,0-.83C236.21,28.88,230.37,19.8,219.56,19.8Zm0,5.95a10.27,10.27,0,0,1,10.22,8.64H208.62A10.75,10.75,0,0,1,219.56,25.75Z"/><path class="cls-1" d="M311.22,54.8h4.6v-46a1.47,1.47,0,0,0-1.47-1.47h-4.6V53.33A1.47,1.47,0,0,0,311.22,54.8Z"/><path class="cls-1" d="M337.55,19.8c-10.07,0-17.38,7.36-17.38,17.5s7.41,17.5,17.62,17.5c6.29,0,11.76-2.86,14.65-7.65l.79-1.3-4-2.38a1.47,1.47,0,0,0-2,.56v0c-1.65,3-5.12,4.79-9.29,4.79-5.64,0-10-3.33-11.21-8.45h26a1.47,1.47,0,0,0,1.47-1.47v0c0-.21,0-.42,0-.64s0-.55,0-.83C354.19,28.88,348.36,19.8,337.55,19.8Zm0,5.95a10.26,10.26,0,0,1,10.21,8.64H326.61A10.73,10.73,0,0,1,337.55,25.75Z"/><path class="cls-1" d="M385.32,24.44a16.29,16.29,0,0,0-11.67-4.64,17.25,17.25,0,0,0-17.38,17.5,17.25,17.25,0,0,0,17.38,17.5,16.29,16.29,0,0,0,11.67-4.64V54.8h6.14V21.27A1.47,1.47,0,0,0,390,19.8h-4.67ZM373.89,48.85A11.55,11.55,0,1,1,385.32,37.3,11.4,11.4,0,0,1,373.89,48.85Z"/><path class="cls-1" d="M404,22.93V19.8h-4.6a1.47,1.47,0,0,0-1.47,1.47V54.8H404V35.34c0-8.9,6.68-9.59,8.73-9.59h0a1.47,1.47,0,0,0,1.47-1.47V19.8h-1.51A12.33,12.33,0,0,0,404,22.93Z"/><path class="cls-1" d="M432.92,19.8a13.39,13.39,0,0,0-9.47,3.47V19.8h-4.6a1.47,1.47,0,0,0-1.47,1.47V54.8h6.07V36.44c0-6.69,3.45-10.69,9.22-10.69,4.77,0,7.51,2.85,7.51,7.81V54.8h6.13V33.56C446.31,25.2,441.05,19.8,432.92,19.8Z"/></g></g></svg>